<svg xmlns="http://www.w3.org/2000/svg" viewBox="0 0 512 512"><path fill="#BDBDBD" d="M467 61H165c-24.82 0-45 20.19-45 45 0 24.82 20.18 45 45 45h302c24.81 0 45-20.18 45-45 0-24.81-20.19-45-45-45zm0 150H165c-24.82 0-45 20.19-45 45 0 24.82 20.18 45 45 45h302c24.81 0 45-20.18 45-45 0-24.81-20.19-45-45-45zm0 150H165c-24.82 0-45 20.19-45 45 0 24.82 20.18 45 45 45h302c24.81 0 45-20.18 45-45 0-24.81-20.19-45-45-45zM45 61C20.18 61 0 81.19 0 106c0 24.82 20.18 45 45 45 24.81 0 45-20.18 45-45 0-24.81-20.19-45-45-45zm0 150c-24.82 0-45 20.19-45 45 0 24.82 20.18 45 45 45 24.81 0 45-20.18 45-45 0-24.81-20.19-45-45-45zm0 150c-24.82 0-45 20.19-45 45 0 24.82 20.18 45 45 45 24.81 0 45-20.18 45-45 0-24.81-20.19-45-45-45z"/></svg>