<svg xmlns="http://www.w3.org/2000/svg" height="512" width="512"><path d="M502 0H98c-5.522 0-10 4.477-10 10v44H54c-5.522 0-10 4.478-10 10v54H10c-5.523 0-10 4.478-10 10v330c0 29.775 24.225 54 54 54h404c29.775 0 54-24.225 54-54V10c0-5.523-4.478-10-10-10zm-10 458c0 18.748-15.252 34-34 34H95.912c7.55-9.29 12.088-21.123 12.088-34V323.003c0-5.522-4.478-10-10-10s-10 4.478-10 10V458c0 18.748-15.252 34-34 34s-34-15.252-34-34V138h24v310c0 5.522 4.478 10 10 10s10-4.478 10-10V74h24v159.003c0 5.523 4.478 10 10 10s10-4.477 10-10V20h384z" data-original="#000000" class="active-path" data-old_color="#000000" fill="#FFF"/><path d="M146 158h308c5.522 0 10-4.477 10-10V76c0-5.522-4.478-10-10-10H146c-5.523 0-10 4.478-10 10v72c0 5.523 4.477 10 10 10zm10-72h288v52H156zm-10 312h154c5.522 0 10-4.478 10-10V196c0-5.523-4.478-10-10-10H146c-5.523 0-10 4.477-10 10v192c0 5.522 4.477 10 10 10zm10-192h134v172H156zm298-20H348c-5.522 0-10 4.477-10 10s4.478 10 10 10h106c5.522 0 10-4.477 10-10s-4.478-10-10-10zm0 48H348c-5.522 0-10 4.477-10 10s4.478 10 10 10h106c5.522 0 10-4.477 10-10s-4.478-10-10-10zm0 48H348c-5.522 0-10 4.478-10 10s4.478 10 10 10h106c5.522 0 10-4.478 10-10s-4.478-10-10-10zm0 48H348c-5.522 0-10 4.478-10 10s4.478 10 10 10h106c5.522 0 10-4.478 10-10s-4.478-10-10-10zm0 48H348c-5.522 0-10 4.478-10 10s4.478 10 10 10h106c5.522 0 10-4.478 10-10s-4.478-10-10-10zm-308 68h308c5.522 0 10-4.478 10-10s-4.478-10-10-10H146c-5.523 0-10 4.478-10 10s4.477 10 10 10zM98.5 268c-2.63 0-5.21 1.069-7.07 2.93A10.076 10.076 0 0088.5 278c0 2.64 1.069 5.21 2.93 7.069 1.86 1.87 4.44 2.931 7.07 2.931s5.21-1.06 7.069-2.931c1.86-1.859 2.931-4.439 2.931-7.069s-1.07-5.21-2.931-7.07A10.067 10.067 0 0098.5 268z" data-original="#000000" class="active-path" data-old_color="#000000" fill="#FFF"/></svg>