<svg xmlns="http://www.w3.org/2000/svg" viewBox="0 0 512 512"><path d="M207 200c0-11.046-8.954-20-20-20h-80c-11.046 0-20 8.954-20 20v35.878H0v40h87V310c0 11.046 8.954 20 20 20h80c11.046 0 20-8.954 20-20v-34.122h305v-40H207V200zm-40 90h-40v-70h40v70zm264 92c0-11.046-8.954-20-20-20h-80c-11.046 0-20 8.954-20 20v35H0v40h311v35c0 11.046 8.954 20 20 20h80c11.046 0 20-8.954 20-20v-35h81v-40h-81v-35zm-40 90h-40v-70h40v70zm42-416V20c0-11.046-8.954-20-20-20h-80c-11.046 0-20 8.954-20 20v36H0v40h313v34c0 11.046 8.954 20 20 20h80c11.046 0 20-8.954 20-20V96h79V56h-79zm-40 54h-40V40h40v70z" fill="#BDBDBD"/></svg>