<svg xmlns="http://www.w3.org/2000/svg" width="512" height="512"><path d="M256 0C148.477 0 61 87.477 61 195c0 69.412 21.115 97.248 122.581 231.01C201.194 449.229 221.158 475.546 244 506a15.001 15.001 0 0024.001-.002c22.708-30.29 42.585-56.507 60.123-79.638C429.834 292.209 451 264.292 451 195 451 87.477 363.523 0 256 0zm48.219 408.235c-14.404 18.998-30.383 40.074-48.222 63.789-17.961-23.867-34.031-45.052-48.515-64.146C108.784 277.766 91 254.321 91 195c0-90.981 74.019-165 165-165s165 74.019 165 165c0 59.205-17.83 82.722-116.781 213.235z" fill="#fff" data-original="#000000" xmlns="http://www.w3.org/2000/svg"/><path d="M256 90c-57.897 0-105 47.103-105 105s47.103 105 105 105 105-47.103 105-105S313.897 90 256 90zm0 180c-41.355 0-75-33.645-75-75s33.645-75 75-75 75 33.645 75 75-33.645 75-75 75z" fill="#fff" data-original="#000000" xmlns="http://www.w3.org/2000/svg"/></svg>