<svg xmlns="http://www.w3.org/2000/svg" viewBox="0 0 490.8 490.8" width="512" height="512"><path fill="#FFF" d="M355.115 3.128c4.237-4.093 10.99-3.975 15.083.262 3.992 4.134 3.992 10.687 0 14.82L143.083 245.346l227.136 227.115c4.237 4.093 4.354 10.845.262 15.083-4.093 4.237-10.845 4.354-15.083.262a10.787 10.787 0 01-.262-.262L120.469 252.877c-4.164-4.165-4.164-10.917 0-15.083L355.115 3.128z" data-original="#F44336"/><path fill="#fff" d="M362.667 490.68a10.667 10.667 0 007.552-18.219L143.083 245.346 370.219 18.232c4.171-4.171 4.171-10.933 0-15.104-4.171-4.171-10.933-4.171-15.104 0L120.448 237.795c-4.164 4.165-4.164 10.917 0 15.083l234.667 234.666c2 2.007 4.718 3.136 7.552 3.136z" data-original="#000000" class="active-path"/></svg>